HIERARCHY
ROOT Hips
{
  OFFSET -331.093 83.8371 -317.828
  CHANNELS 6 Xposition Yposition Zposition Zrotation Xrotation Yrotation
  JOINT LeftUpLeg
  {
    OFFSET 8.64259 1.95398 -2.38835
    CHANNELS 3 Zrotation Xrotation Yrotation
    JOINT LeftLeg
    {
      OFFSET 43.7702 0 0
      CHANNELS 3 Zrotation Xrotation Yrotation
      JOINT LeftFoot
      {
        OFFSET 40.6238 0 0
        CHANNELS 3 Zrotation Xrotation Yrotation
        JOINT LeftToeBase
        {
          OFFSET 12.7242 0 0
          CHANNELS 3 Zrotation Xrotation Yrotation
          End Site
          {
            OFFSET 0 0 0
          }
        }
      }
    }
  }
  JOINT RightUpLeg
  {
    OFFSET -8.2249 1.95398 -2.59336
    CHANNELS 3 Zrotation Xrotation Yrotation
    JOINT RightLeg
    {
      OFFSET 43.5653 0 0
      CHANNELS 3 Zrotation Xrotation Yrotation
      JOINT RightFoot
      {
        OFFSET 40.6238 0 0
        CHANNELS 3 Zrotation Xrotation Yrotation
        JOINT RightToeBase
        {
          OFFSET 12.7242 0 0
          CHANNELS 3 Zrotation Xrotation Yrotation
          End Site
          {
            OFFSET 0 0 0
          }
        }
      }
    }
  }
  JOINT Spine
  {
    OFFSET 0.165834 0.87714 6.61349
    CHANNELS 3 Zrotation Xrotation Yrotation
    JOINT Spine1
    {
      OFFSET 7.38963 1.71661e-005 0
      CHANNELS 3 Zrotation Xrotation Yrotation
      JOINT Spine2
      {
        OFFSET 11.9445 1.14441e-005 0
        CHANNELS 3 Zrotation Xrotation Yrotation
        JOINT Spine3
        {
          OFFSET 14.7254 4.19617e-005 0
          CHANNELS 3 Zrotation Xrotation Yrotation
          JOINT Spine4
          {
            OFFSET 10.9679 0 0
            CHANNELS 3 Zrotation Xrotation Yrotation
            JOINT RightShoulder
            {
              OFFSET 2.46616 -1.6653 3.69651
              CHANNELS 3 Zrotation Xrotation Yrotation
              JOINT RightArm
              {
                OFFSET 13.0012 0 0
                CHANNELS 3 Zrotation Xrotation Yrotation
                JOINT RightForeArm
                {
                  OFFSET 28.7848 1.62311e-005 0
                  CHANNELS 3 Zrotation Xrotation Yrotation
                  JOINT RightHand
                  {
                    OFFSET 26.5688 1.62095e-005 0
                    CHANNELS 3 Zrotation Xrotation Yrotation
                    End Site
                    {
                      OFFSET 0 0 0
                    }
                  }
                }
              }
            }
            JOINT LeftShoulder
            {
              OFFSET 2.38034 -1.29275 -3.7523
              CHANNELS 3 Zrotation Xrotation Yrotation
              JOINT LeftArm
              {
                OFFSET 16.3182 6.07031e-005 0
                CHANNELS 3 Zrotation Xrotation Yrotation
                JOINT LeftForeArm
                {
                  OFFSET 27.0901 0 0
                  CHANNELS 3 Zrotation Xrotation Yrotation
                  JOINT LeftHand
                  {
                    OFFSET 24.5451 1.51738e-005 0
                    CHANNELS 3 Zrotation Xrotation Yrotation
                    End Site
                    {
                      OFFSET 0 0 0
                    }
                  }
                }
              }
            }
            JOINT Neck
            {
              OFFSET 5.0226 -0.0266342 0
              CHANNELS 3 Zrotation Xrotation Yrotation
              JOINT Head
              {
                OFFSET 6.69364 2.86102e-005 0
                CHANNELS 3 Zrotation Xrotation Yrotation
                End Site
                {
                  OFFSET 0 0 0
                }
              }
            }
          }
        }
      }
    }
  }
}
MOTION
Frames:	12
Frame Time:	0.0416667
-46.0319 97.914 32.915 92.0738 25.8486 92.4849 -173.207 8.08896 88.876 -22.6259 -18.2919 -1.8862 67.7089 2.94065 5.09073 32.9153 2.81983 -0.955363 -174.586 14.2656 95.1373 -23.7254 -27.2621 -7.29591 62.8094 -2.51874 -1.04489 41.8966 -0.122863 0.463418 -1.54299 7.27888 -89.7391 12.3307 -2.9425 0.853759 0.662741 -2.90205 0.982515 -21.8992 -3.06291 -0.0708652 -1.88654 -3.06294 -0.0708821 93.591 -40.6746 -96.6692 32.0333 -13.2648 1.36136 -7.51391 -15.9423 -31.9921 -17.195 0.396086 -9.05035 -100.086 -48.297 63.7852 -15.1284 13.0144 -4.72552 1.47212 13.3084 -27.7394 6.86071 0.361621 1.2252 -15.4489 -32.0492 -17.9201 -7.53701 -31.5083 -13.861 
-46.517 98.0699 32.7614 92.4352 26.4528 92.3879 -173.489 7.71624 88.7457 -22.2095 -18.1299 -1.59692 67.7245 2.03364 4.05292 33.4765 3.53151 0.0949266 -174.532 13.3414 94.6815 -23.9982 -30.8246 -7.75723 62.3133 -2.10847 -0.788588 34.7641 -0.680305 -3.22098 -1.62066 7.23558 -89.7073 12.4193 -3.08116 0.936706 0.75162 -3.03694 1.0715 -21.8129 -3.2201 -0.0335604 -1.80024 -3.22009 -0.0335511 93.3578 -40.9841 -97.0048 32.073 -12.9013 3.87422 -7.82947 -13.6915 -34.9539 -2.53141 -0.327016 2.46431 -99.7684 -48.2413 64.2295 -15.1353 13.2418 -5.10289 1.75476 13.6386 -28.4821 12.2381 0.932269 3.65469 -15.2775 -32.1142 -16.9618 -8.89218 -31.3772 -15.0612 
-46.7871 98.1072 32.6089 92.7795 27.8377 92.2721 -173.71 7.02001 88.5716 -21.2398 -17.4179 -1.41952 68.3159 2.37363 3.56703 32.1281 3.05535 2.18855 -175.58 11.9095 94.1752 -21.5353 -32.1859 -7.46326 60.0544 -0.612904 0.0784696 34.1339 0.00920428 0.597975 -1.64463 7.18522 -89.7091 12.5206 -3.12887 0.943002 0.852966 -3.0843 1.0799 -21.7125 -3.26749 -0.0419346 -1.69983 -3.26747 -0.0419298 93.5001 -41.2713 -96.7 32.6312 -12.2895 6.39395 -7.26111 -15.1942 -31.0037 -0.485936 -0.118228 2.14821 -99.4498 -48.0385 64.6209 -15.5298 13.1875 -5.29408 2.2438 13.1031 -29.7836 12.5168 1.00799 4.02098 -15.6492 -32.4979 -18.033 -7.87163 -31.971 -13.6825 
-47.0075 98.1164 32.5272 93.4194 28.0637 91.8428 -173.834 6.36347 88.247 -20.946 -17.0319 -1.3669 69.1167 2.84606 3.43812 29.8545 1.92601 4.71624 -176.374 10.9532 93.9013 -20.7052 -32.2711 -7.24946 60.3921 -0.731015 -0.0142259 33.5325 0.216168 1.87381 -1.58424 7.19946 -89.7026 12.4912 -3.00597 0.940561 0.823256 -2.96168 1.07205 -21.7398 -3.14957 -0.0072181 -1.72716 -3.14955 -0.00721156 93.5084 -41.196 -96.7016 33.0815 -11.3736 7.0897 -6.70117 -15.3378 -28.5926 0.765829 -0.0354321 2.4903 -99.0747 -47.9405 65.1368 -16.5118 12.6185 -4.49696 2.84916 12.3569 -31.2986 12.8611 0.944412 3.35728 -15.799 -32.6325 -18.0814 -7.53793 -32.1513 -13.8541 
-47.1136 98.062 32.5451 93.7769 28.1196 91.5735 -173.717 6.27913 88.248 -21.4093 -16.8731 -1.47875 69.2234 2.70769 3.2327 30.1539 1.96305 3.90271 -176.272 10.5141 93.8178 -20.4722 -32.0332 -7.2089 60.7415 -1.0765 -0.197055 33.9754 0.0266322 0.715482 -1.5243 7.19866 -89.688 12.492 -2.8799 0.955243 0.823822 -2.83507 1.08115 -21.7369 -3.03375 0.0447888 -1.72425 -3.03375 0.0447834 93.4348 -41.1889 -96.8293 33.2851 -10.969 7.16976 -7.21036 -14.4222 -30.1439 0.168236 -0.0724287 2.2474 -99.1496 -48.0717 65.0747 -16.7991 12.8696 -3.29287 2.49618 11.5783 -31.4858 12.9309 0.916934 3.11867 -15.6656 -32.6087 -17.4826 -8.25553 -31.9934 -14.9995 
-47.285 98.0086 32.6327 93.8432 29.1176 91.1517 -173.687 6.59571 88.081 -21.9765 -16.5709 -1.60505 69.2835 2.43133 2.62332 30.1718 1.63681 2.5332 -175.939 10.8487 93.5306 -21.8003 -30.5686 -7.25363 63.4813 -3.00378 -1.27135 36.1136 -0.637188 -2.78505 -1.53515 7.17812 -89.656 12.5339 -2.886 1.02141 0.865672 -2.83822 1.14751 -21.6951 -3.05946 0.106053 -1.68243 -3.05942 0.106057 93.7355 -40.6951 -96.4157 33.5858 -11.3697 6.39637 -8.2891 -13.7672 -33.9191 -0.560522 -0.117823 2.06045 -99.2104 -48.0396 64.9735 -17.567 12.4076 -2.43949 2.31897 12.8797 -29.6584 12.735 0.910691 3.16575 -16.31 -32.7861 -18.2379 -7.58151 -32.3511 -14.695 
-47.1073 98.0164 32.6998 94.1853 30.6199 90.689 -173.735 6.5774 88.13 -22.3338 -14.6428 -1.62849 68.0068 2.18149 3.94006 32.2432 2.70056 0.454967 -175.641 10.8499 93.4823 -23.2072 -30.8055 -7.53789 63.4869 -3.01171 -1.26249 35.6344 -0.490881 -1.94214 -1.56417 7.18756 -89.6581 12.5155 -2.94476 1.02328 0.847371 -2.89688 1.15198 -21.7145 -3.11606 0.0901267 -1.70182 -3.11604 0.090122 93.6658 -40.5555 -96.565 33.3061 -11.6924 4.93979 -9.11824 -12.9071 -37.7975 -1.96726 -0.192677 2.39734 -99.4213 -48.1753 64.714 -18.3144 11.8321 -1.32605 1.82362 13.8827 -27.4178 12.1072 0.837767 2.93133 -16.0307 -33.0612 -17.9944 -8.09663 -32.5035 -15.3078 
-46.6963 97.9952 32.7387 94.0509 31.9609 90.3939 -173.902 6.46597 88.0377 -22.0808 -13.9891 -1.53253 67.4065 1.99125 4.028 34.0073 3.5778 -1.12443 -175.827 11.0103 93.399 -23.3003 -29.7893 -7.53318 61.7505 -1.88597 -0.658885 35.2523 0.401541 2.88585 -1.51968 7.1477 -89.6608 12.5945 -2.85676 1.01091 0.926196 -2.80953 1.13575 -21.634 -3.02841 0.104854 -1.6214 -3.02841 0.104853 93.7802 -40.6495 -96.3483 32.3509 -12.573 2.53874 -9.24453 -12.5726 -39.5672 -3.31485 -0.254437 0.821706 -99.2819 -48.0796 64.8832 -19.0013 11.3936 -0.305495 1.19112 13.9204 -25.9878 11.6566 0.855582 3.30824 -16.24 -33.5099 -18.9291 -7.50988 -33.0656 -14.6027 
-46.2078 98.1069 32.8081 93.9755 33.2348 90.1428 -174.185 6.01283 87.9301 -21.2891 -12.9339 -1.30682 67.0502 2.19339 4.22277 33.846 3.53505 -0.859924 -176.885 10.0587 93.2757 -21.9151 -29.2118 -7.27028 61.8801 -1.80603 -0.660864 34.9834 0.574639 3.94257 -1.49916 7.126 -89.6968 12.6369 -2.83339 0.937862 0.96865 -2.78936 1.06173 -21.5913 -2.98418 0.0422173 -1.57862 -2.98415 0.0422195 93.9487 -40.2152 -96.1455 31.6918 -13.301 -0.172697 -9.52726 -12.4434 -40.8322 -3.58257 -0.267487 0.802253 -98.9682 -47.966 65.303 -20.441 10.7821 1.82377 1.72518 13.9253 -26.8572 11.9934 0.916149 3.60507 -16.1977 -33.7221 -19.3259 -7.22984 -33.305 -14.2833 
-45.7905 98.2069 32.9203 93.9058 33.6577 89.4194 -174.851 5.1871 87.1909 -19.7661 -13.8884 -0.789451 66.4452 1.50407 3.40161 34.0539 3.64548 -1.01219 -177.844 9.20629 92.6924 -20.8786 -29.6768 -7.32154 62.5432 -2.0022 -0.802529 34.3306 0.668754 4.57568 -1.44396 7.13671 -89.647 12.6154 -2.69991 1.02109 0.946775 -2.65237 1.13899 -21.6107 -2.88187 0.161825 -1.59804 -2.88188 0.161817 93.8344 -40.279 -96.3308 30.7667 -13.9321 -2.49916 -9.67767 -12.3268 -41.9131 -4.78463 -0.312046 0.30936 -97.6512 -47.3323 67.0274 -22.3133 10.7525 3.46893 2.78767 14.5468 -28.6482 11.6227 0.947342 4.0613 -16.0618 -33.8536 -19.707 -7.63424 -33.3707 -14.3462 
-45.3084 98.318 33.1229 92.9765 34.4793 90.1917 -174.987 5.45962 87.6216 -18.8659 -12.8656 -0.583282 66.2209 1.58399 3.75593 34.0378 3.78218 -0.497787 -178.684 8.5188 93.0122 -18.4025 -29.9068 -7.00019 62.5765 -1.79118 -0.71346 33.1528 0.694376 4.90753 -1.40776 7.09591 -89.7274 12.6953 -2.66585 0.85907 1.02669 -2.62543 0.975619 -21.5304 -2.80069 0.0175513 -1.51776 -2.80069 0.0175437 93.7494 -40.4367 -96.4448 29.8415 -14.6484 -3.65697 -9.05612 -10.5325 -43.0272 -6.104 -0.39757 1.39633 -97.8209 -47.2288 66.7384 -23.0659 11.1423 4.9267 2.69983 13.9339 -29.2109 13.1584 1.05674 4.02588 -16.2712 -34.0589 -20.1321 -7.36506 -33.6286 -14.4552 
-45.0169 98.4169 33.3958 92.2382 35.297 90.697 -175.305 5.64382 87.826 -17.9157 -12.6462 -0.208663 65.8971 1.2644 3.38883 34.0498 3.76053 -0.603926 -179.484 7.53923 93.1971 -15.5583 -30.1738 -6.86712 62.6223 -1.57681 -0.609928 31.552 0.668997 5.02953 -1.38838 7.10271 -89.7626 12.6807 -2.64425 0.78581 1.01209 -2.60711 0.901486 -21.5447 -2.75809 -0.0458197 -1.53203 -2.7581 -0.0458225 93.7512 -40.7139 -96.3848 29.3371 -14.695 -4.26498 -9.88936 -11.8118 -43.4701 -4.45232 -0.307684 0.658312 -97.8607 -46.9733 66.5877 -23.6821 10.3937 5.30248 3.02035 14.0668 -29.2841 12.8848 1.03465 4.01566 -15.9529 -34.3022 -20.4366 -7.96583 -33.7532 -14.529 
